<svg width="205" height="65" viewBox="0 0 205 65" fill="none" xmlns="http://www.w3.org/2000/svg">
<g clip-path="url(#clip0_336_35410)">
<path d="M85.1733 27.7045L83.4796 32.1873C83.0448 33.3548 82.8026 34.384 82.8026 35.1293C82.8026 36.8108 84.3505 38.0726 87.5921 38.0261V39.7076H75.1582V38.0261C78.737 37.4656 79.8019 36.112 81.5932 31.6745L90.1086 10.5174L89.0437 7.85559H95.7677L106.944 34.8515C107.961 37.3261 108.928 37.9331 111.347 38.0261V39.7076H94.8968V38.0261C99.2033 38.1191 100.315 37.0446 100.315 35.7376C100.315 35.2236 100.073 34.5235 99.59 33.3083L97.3144 27.7045H85.172H85.1733ZM90.9782 12.6186L86.0442 25.4172H96.3978L90.9782 12.6186Z" fill="#F9F9F9"/>
<path d="M133.268 7.85559C140.574 7.85559 144.783 11.2651 144.783 15.9817C144.783 20.1854 141.251 23.4554 135.735 24.3427C138.638 27.5185 143.525 34.6643 145.654 36.7178C146.717 37.7458 147.492 38.1191 149.185 38.0261V39.7076H140.526C136.46 36.3458 132.737 29.1988 129.785 26.351C128.914 25.5102 128.236 25.1835 126.446 25.1835H124.607V33.9165C124.607 36.8598 125.431 38.261 129.784 38.0273V39.7088H113.092V38.0273C116.574 38.1203 118.075 37.6075 118.075 33.5898V13.7874C118.075 10.8906 117.398 9.39759 113.092 9.53832V7.85559H133.266H133.268ZM127.849 23.5019C135.058 23.5019 137.43 20.8402 137.43 16.8236C137.43 12.8071 134.816 9.53832 128.672 9.53832H124.608V23.5019H127.851H127.849Z" fill="#F9F9F9"/>
<path d="M167.332 7.85559V9.5371C163.123 9.34986 162.252 10.5174 162.252 13.7862V33.6351C162.252 36.8108 162.978 38.2598 167.332 38.0249V39.7064H150.689V38.0249C154.56 38.2121 155.722 37.1853 155.722 33.7758V13.7409C155.722 10.6581 154.754 9.35108 150.689 9.5371V7.85559H167.332Z" fill="#F9F9F9"/>
<path d="M178.898 27.7045L177.204 32.1873C176.769 33.3548 176.527 34.384 176.527 35.1293C176.527 36.8108 178.075 38.0726 181.317 38.0261V39.7076H168.883V38.0261C172.462 37.4656 173.528 36.112 175.318 31.6745L183.833 10.5174L182.768 7.85559H189.494L200.669 34.8515C201.685 37.3261 202.653 37.9331 205.072 38.0261V39.7076H188.623V38.0261C192.929 38.1191 194.042 37.0446 194.042 35.7376C194.042 35.2236 193.799 34.5235 193.316 33.3083L191.042 27.7045H178.898ZM184.704 12.6186L179.769 25.4172H190.122L184.704 12.6186Z" fill="#F9F9F9"/>
<path d="M76.2572 47.2732H75.1758V57.268H76.2572V47.2732Z" fill="#AF9D83"/>
<path d="M85.2052 57.2692H84.2265L79.8275 50.2299L79.2469 49.2704C79.2621 49.7698 79.2722 50.2654 79.2722 50.7904V57.2692H78.2188V47.2744H79.1987L83.5977 54.3137L84.1796 55.2732C84.1644 54.736 84.1543 54.2073 84.1543 53.6676V47.2732H85.2065V57.268L85.2052 57.2692ZM84.5714 56.6806H84.5954V56.6121H84.5295L84.5714 56.6806ZM78.8285 47.9304H78.8957L78.8539 47.8631H78.8285V47.9304Z" fill="#AF9D83"/>
<path d="M90.5628 57.2668H89.4815V48.2608H86.3223V47.2732H93.7233V48.2608H90.5628V57.2668Z" fill="#AF9D83"/>
<path d="M101.031 57.2668H95.0469V47.2732H100.884V48.2608H96.1295V51.4623H100.117V52.4499H96.1295V56.2804H101.031V57.2668Z" fill="#AF9D83"/>
<path d="M106.133 57.4384C103.496 57.4384 101.725 55.3506 101.725 52.2422C101.725 49.1337 103.513 47.1022 106.281 47.1022C107.385 47.1022 108.308 47.4962 109.1 48.3052L109.294 48.5034L108.581 49.2597L108.355 49.0162C107.793 48.4104 107.115 48.1167 106.28 48.1167C104.122 48.1167 102.834 49.6587 102.834 52.2409C102.834 54.8232 104.109 56.4215 106.162 56.4215C106.974 56.4215 107.736 56.1926 108.189 55.8169V53.1331H105.767V52.1455H109.271V56.2012L109.193 56.2856C108.494 57.0272 107.407 57.436 106.133 57.436V57.4384Z" fill="#AF9D83"/>
<path d="M117.619 57.268H116.346L113.602 52.8219H111.894V57.268H110.812V47.2732H113.803C115.37 47.2732 117.237 47.7444 117.237 49.99C117.237 51.4427 116.337 52.4413 114.803 52.7277L117.619 57.268ZM111.894 51.8343H113.627C115.309 51.8343 116.127 51.231 116.127 49.9913C116.127 49.1358 115.83 48.262 113.627 48.262H111.894V51.8343Z" fill="#AF9D83"/>
<path d="M126.621 57.268H125.467L124.258 53.905H120.718L119.494 57.268H118.373L122.075 47.2732H122.918L126.621 57.268ZM121.083 52.9174H123.898L123.305 51.2726C123.014 50.4698 122.752 49.749 122.497 48.9706C122.242 49.7477 121.981 50.4698 121.689 51.2726L121.632 51.428L121.082 52.9174H121.083Z" fill="#AF9D83"/>
<path d="M130.369 57.2668H129.288V48.2608H126.129V47.2732H133.53V48.2608H130.369V57.2668Z" fill="#AF9D83"/>
<path d="M136.573 47.2732H135.49V57.268H136.573V47.2732Z" fill="#AF9D83"/>
<path d="M142.569 57.268H141.656L138.205 47.2732H139.352L141.31 53.1205C141.4 53.3959 141.483 53.6529 141.563 53.8989C141.75 54.4716 141.918 54.9893 142.112 55.5547C142.304 54.9954 142.471 54.4826 142.655 53.9148C142.737 53.6627 142.822 53.4008 142.913 53.1218L144.872 47.2732H145.989L142.569 57.268Z" fill="#AF9D83"/>
<path d="M152.972 57.2668H146.988V47.2732H152.825V48.2608H148.071V51.4623H152.057V52.4499H148.071V56.2804H152.972V57.2668Z" fill="#AF9D83"/>
<path d="M165.579 57.2668H164.497V52.4499H159.645V57.2668H158.562V47.2732H159.645V51.4623H164.497V47.2732H165.579V57.2668Z" fill="#AF9D83"/>
<path d="M173.681 57.2668H167.697V47.2732H173.533V48.2608H168.779V51.4623H172.764V52.4499H168.779V56.2804H173.681V57.2668Z" fill="#AF9D83"/>
<path d="M182.639 57.268H181.487L180.275 53.905H176.737L175.513 57.268H174.391L178.092 47.2732H178.935L182.639 57.268ZM177.102 52.9174H179.917L179.318 51.2628C179.029 50.4637 178.768 49.7453 178.515 48.9706C178.26 49.7502 177.997 50.4722 177.706 51.2775L177.651 51.4292L177.102 52.9186V52.9174Z" fill="#AF9D83"/>
<path d="M189.806 57.2668H184.148V47.2732H185.231V56.2804H189.806V57.2668Z" fill="#AF9D83"/>
<path d="M192.994 57.2668H191.913V48.2608H188.754V47.2732H196.155V48.2608H192.994V57.2668Z" fill="#AF9D83"/>
<path d="M205.102 57.2668H204.02V52.4499H199.167V57.2668H198.086V47.2732H199.167V51.4623H204.02V47.2732H205.102V57.2668Z" fill="#AF9D83"/>
<path d="M66.5129 25.3781C66.3582 24.7099 66.1858 24.0429 65.9855 23.3918C64.1929 17.4515 60.6788 12.2136 56.0084 8.21541C55.1527 7.46889 54.2514 6.77499 53.3132 6.12392H53.3044C47.7796 2.26771 40.9883 0 33.6697 0C26.3511 0 19.5421 2.27506 14.0072 6.12515C13.0691 6.78356 12.169 7.47745 11.3132 8.21663C6.64419 12.2234 3.13891 17.4613 1.34633 23.4016C1.14603 24.0515 0.963477 24.7197 0.818955 25.3879C0.281437 27.6727 0 30.0542 0 32.4969C0 35.8979 0.546393 39.1753 1.55678 42.2605C1.73806 42.832 1.93963 43.3851 2.15768 43.9383C3.7601 48.0686 6.21696 51.7939 9.31277 54.9232C9.73112 55.3454 10.1685 55.7578 10.6059 56.1531C12.9727 58.3156 15.6666 60.1427 18.6078 61.566C19.1542 61.8291 19.7094 62.0849 20.2736 62.3125C21.6478 62.8926 23.0689 63.3846 24.5243 63.7799C25.2076 63.9732 25.8985 64.1323 26.5907 64.2804C28.0562 64.579 29.5496 64.7907 31.0696 64.9045C31.6528 64.9486 32.2435 64.9743 32.8355 64.9927C33.1094 65.0012 33.3908 65.0012 33.6735 65.0012C33.9562 65.0012 34.2465 65.0012 34.5292 64.9927H34.5381C35.1301 64.9743 35.712 64.9486 36.2952 64.9045C37.8241 64.7907 39.3175 64.579 40.783 64.2718C41.4751 64.1225 42.1661 63.9634 42.8405 63.7713C44.2971 63.376 45.717 62.884 47.0912 62.304C47.6553 62.0665 48.2106 61.8206 48.757 61.5489C51.6791 60.1342 54.3642 58.3156 56.731 56.1531C57.1671 55.7578 57.6045 55.3454 58.0241 54.9232C61.1187 51.7951 63.5768 48.0601 65.1881 43.9297C65.4061 43.3766 65.6064 42.8222 65.7801 42.2519C66.7905 39.1753 67.3369 35.8979 67.3369 32.4969C67.3369 30.0542 67.0555 27.6727 66.5179 25.3793M52.6819 7.84827C57.8796 11.5907 61.8578 16.8286 63.9242 22.8925C61.6397 22.4177 59.2728 22.1717 56.8515 22.1717C53.2828 22.1717 49.8422 22.7077 46.6107 23.7088C43.9979 18.8148 40.1377 14.6404 35.4319 11.5735C39.9742 9.15652 45.1896 7.78585 50.7245 7.78585C51.3799 7.78585 52.0354 7.80299 52.6819 7.84704M36.2876 44.9296C36.0061 44.7362 35.7234 44.5429 35.4319 44.3593C36.815 43.6201 38.2538 42.9886 39.746 42.4612C40.2099 43.4794 40.6106 44.5257 40.9566 45.5978C39.4366 45.2723 37.8799 45.0532 36.2863 44.9296M41.4929 47.5314C41.6932 48.322 41.8567 49.1309 41.9936 49.9484C41.0555 48.9119 40.0451 47.9267 38.9714 47.0223C39.8271 47.1545 40.6651 47.3307 41.4929 47.5326M26.4094 45.599C26.7555 44.527 27.1561 43.4806 27.6201 42.4624C29.1122 42.9899 30.56 43.6213 31.9355 44.3605C31.6439 44.5453 31.3713 44.7375 31.0886 44.9308C29.4951 45.0446 27.9383 45.2735 26.4094 45.599ZM28.3934 47.0137C27.3196 47.9365 26.3093 48.9204 25.3711 49.9582C25.5081 49.1321 25.6716 48.3232 25.8719 47.5241C26.6997 47.3221 27.5377 47.1557 28.3934 47.0137ZM32.3982 32.3476C30.0947 34.6937 28.1563 37.3652 26.6541 40.2828C24.1693 39.5351 21.5654 39.0614 18.8803 38.895V38.5254C18.8803 34.0181 19.8907 29.7385 21.6934 25.8896C25.7071 27.3398 29.3404 29.5537 32.3982 32.3489M22.5035 24.2999C25.1075 19.5111 28.9753 15.4591 33.6824 12.5685C38.3984 15.4591 42.2662 19.5099 44.8701 24.2999C40.6739 25.8468 36.8771 28.1757 33.6824 31.1006C30.4877 28.1745 26.6921 25.8456 22.5035 24.2999ZM28.3934 40.8641C29.7955 38.1925 31.5792 35.7498 33.6824 33.5971C35.7856 35.751 37.5693 38.1938 38.9714 40.8641C37.123 41.5225 35.3571 42.3412 33.6824 43.2983C32.0077 42.34 30.2418 41.5225 28.3934 40.8641ZM40.7094 40.284C39.2072 37.3665 37.2688 34.6949 34.9653 32.3489C38.0244 29.5549 41.6564 27.3398 45.6701 25.8896C47.4817 29.7385 48.492 34.0181 48.492 38.5254V38.895C45.7968 39.0529 43.1942 39.5363 40.7094 40.2828M33.6697 1.75739C39.5774 1.75739 45.1123 3.31284 49.8549 6.03703C43.965 6.18634 38.4491 7.79442 33.6786 10.51C28.8992 7.79442 23.3745 6.17777 17.4757 6.03703C22.2183 3.32141 27.7621 1.75739 33.6697 1.75739ZM14.6626 7.84704C15.318 7.80299 15.9734 7.78585 16.6377 7.78585C22.1726 7.78585 27.3881 9.15652 31.9304 11.5735C27.2246 14.6404 23.3643 18.8148 20.7604 23.7174C17.5289 22.7065 14.0883 22.1705 10.5108 22.1705C8.07165 22.1705 5.69592 22.425 3.40133 22.8999C5.47661 16.8273 9.46363 11.5894 14.6613 7.84704M1.8192 32.4957C1.8192 29.8511 2.16529 27.2762 2.82071 24.8335C5.27884 24.2448 7.85487 23.9279 10.5133 23.9279C13.8081 23.9279 16.9762 24.4113 19.9706 25.3071C18.0956 29.3493 17.0573 33.8223 17.0573 38.523V38.813H16.639C11.8685 38.813 7.32623 39.7798 3.21244 41.5115C2.31108 38.6551 1.8192 35.6323 1.8192 32.4945M3.8032 43.1795C7.72683 41.5017 12.0777 40.5692 16.639 40.5692C16.8025 40.5692 16.9661 40.5692 17.1309 40.5777C17.2944 43.2395 17.804 45.8144 18.6052 48.2669C15.6654 49.6902 12.9702 51.5186 10.6033 53.6798C7.6533 50.6913 5.32321 47.1239 3.8032 43.1783M19.2049 59.8833C16.5287 58.5567 14.0706 56.8776 11.8951 54.9183C14.0706 52.9492 16.5287 51.2713 19.2049 49.9533C19.8781 51.685 20.7071 53.3457 21.663 54.9183C20.6983 56.4909 19.8793 58.1516 19.2049 59.8833ZM20.8618 49.1897C21.8354 48.7674 22.8369 48.3991 23.8651 48.0821C23.5557 49.5323 23.3466 51.0168 23.2464 52.5368C23.0829 52.7656 22.9193 52.9945 22.7647 53.2221C22.0269 51.931 21.3905 50.586 20.8618 49.1884M20.8618 60.6469C21.3905 59.2493 22.0269 57.9044 22.7558 56.6133C22.9384 56.8592 23.1108 57.1052 23.2933 57.3426C23.4201 58.8541 23.6483 60.3385 23.9944 61.79C22.9206 61.4559 21.8823 61.0777 20.8631 60.6482M24.3684 46.0959C22.9662 46.4826 21.592 46.9574 20.2723 47.5192C19.5713 45.3224 19.125 43.0205 18.9526 40.6475C21.3461 40.8152 23.6686 41.2361 25.8884 41.8872C25.2875 43.2493 24.7778 44.6555 24.3684 46.0959ZM25.9974 62.3358C25.7882 61.5721 25.6158 60.7889 25.4789 59.9983C26.3803 60.9908 27.3539 61.9405 28.382 62.8192C27.5808 62.687 26.7796 62.5291 25.9974 62.3358ZM41.3636 62.3358C40.589 62.5206 39.7891 62.6784 38.9879 62.8106C40.016 61.9319 40.9719 61.0006 41.8821 60.0167C41.7452 60.7987 41.5639 61.5721 41.3636 62.337M42.2916 56.7222C40.4166 59.182 38.1765 61.3531 35.6461 63.1814C34.9907 63.2255 34.3353 63.2426 33.671 63.2426C33.0067 63.2426 32.369 63.2243 31.7237 63.1814C29.1845 61.3531 26.9355 59.1747 25.0694 56.7136C25.0238 56.0369 24.9972 55.3601 24.9972 54.6748C24.9972 54.1644 25.006 53.6639 25.0428 53.1634C26.9178 50.6851 29.1845 48.4798 31.7428 46.6515C32.3804 46.6074 33.0257 46.5903 33.6722 46.5903C34.3188 46.5903 34.992 46.6074 35.6385 46.6515C38.1866 48.4884 40.4445 50.6766 42.3195 53.1548C42.3562 53.6553 42.3651 54.1644 42.3651 54.6748C42.3651 55.3601 42.3385 56.0454 42.2928 56.7222M41.4739 41.8897C43.6949 41.2398 46.025 40.8176 48.4198 40.6499C48.2461 43.0315 47.8011 45.3334 47.0899 47.5314C45.7702 46.9684 44.396 46.4948 42.9939 46.1081C42.5933 44.6579 42.0748 43.2517 41.4739 41.8897ZM46.508 49.2092C45.9705 50.5983 45.3341 51.9518 44.6052 53.2343C44.4505 52.9969 44.287 52.7681 44.1133 52.5392C44.0131 51.0278 43.804 49.5433 43.4946 48.0931C44.5228 48.4089 45.5332 48.787 46.508 49.2092ZM43.3767 61.7851C43.714 60.3434 43.9498 58.8577 44.0689 57.3463C44.2604 57.1089 44.4328 56.8629 44.6064 56.6084C45.3341 57.9007 45.9718 59.2359 46.5093 60.6335C45.4901 61.0728 44.4518 61.4595 43.378 61.7851M48.1574 59.8784C47.4931 58.1467 46.664 56.4946 45.7081 54.922C46.664 53.3494 47.4829 51.6972 48.1574 49.9655C50.8247 51.2836 53.2727 52.9529 55.4392 54.922C53.2727 56.8813 50.8247 58.5591 48.1574 59.8784ZM56.7323 53.6835C54.3655 51.5296 51.6804 49.711 48.7583 48.2877C49.5684 45.8364 50.078 43.253 50.2415 40.5814C50.4051 40.5728 50.5597 40.5728 50.7245 40.5728C55.2757 40.5728 59.6088 41.5042 63.5324 43.1747C62.0213 47.1202 59.6823 50.6876 56.7323 53.6847M64.1232 41.5054C60.0183 39.7737 55.4849 38.8167 50.7245 38.8167H50.315V38.5266C50.315 33.826 49.278 29.353 47.4018 25.3108C50.3873 24.4149 53.5554 23.9315 56.8515 23.9315C59.4909 23.9315 62.0669 24.2473 64.5162 24.8371C65.1716 27.2799 65.5177 29.8547 65.5177 32.4994C65.5177 35.6274 65.0347 38.66 64.1245 41.5066" fill="#AF9D83"/>
</g>
<defs>
<clipPath id="clip0_336_35410">
<rect width="205" height="65" fill="white"/>
</clipPath>
</defs>
</svg>
